<?xml version="1.0" encoding="UTF-8"?>
<svg version="1.1" xmlns="http://www.w3.org/2000/svg" width="500" height="499">
<path d="M0 0 C1.65843648 1.0887015 3.36389639 2.10689434 5.09375 3.078125 C5.82078125 3.54992188 6.5478125 4.02171875 7.296875 4.5078125 C7.296875 5.1678125 7.296875 5.8278125 7.296875 6.5078125 C8.01488281 6.75402344 8.73289062 7.00023437 9.47265625 7.25390625 C12.62785965 8.65476419 14.83978663 10.35542091 17.484375 12.5703125 C18.43570312 13.36566406 19.38703125 14.16101563 20.3671875 14.98046875 C24.07127246 18.17585937 27.70364315 21.44269002 31.30078125 24.7578125 C33.18138175 26.55563229 33.18138175 26.55563229 35.296875 27.5078125 C35.296875 28.1678125 35.296875 28.8278125 35.296875 29.5078125 C36.616875 30.1678125 37.936875 30.8278125 39.296875 31.5078125 C39.296875 32.1678125 39.296875 32.8278125 39.296875 33.5078125 C40.616875 34.1678125 41.936875 34.8278125 43.296875 35.5078125 C43.296875 36.1678125 43.296875 36.8278125 43.296875 37.5078125 C43.956875 37.5078125 44.616875 37.5078125 45.296875 37.5078125 C48.5477257 40.95207765 51.38047286 44.77826866 54.296875 48.5078125 C54.81846191 49.17184082 55.34004883 49.83586914 55.87744141 50.52001953 C74.296875 74.03938466 74.296875 74.03938466 74.296875 79.5078125 C74.956875 79.5078125 75.616875 79.5078125 76.296875 79.5078125 C93.76299223 113.15507376 105.36746946 148.28095835 106.296875 186.5078125 C106.31733887 187.15911133 106.33780273 187.81041016 106.35888672 188.48144531 C106.71064582 200.59242385 105.69293134 212.4850922 104.296875 224.5078125 C104.16804932 225.71147461 104.16804932 225.71147461 104.03662109 226.93945312 C101.76400179 247.67121945 95.9030391 268.51562068 87.296875 287.5078125 C86.9870166 288.21599121 86.6771582 288.92416992 86.35791016 289.65380859 C78.89904883 306.65885881 69.45720127 322.14095438 57.71484375 336.52734375 C55.63214739 339.0945446 53.66649461 341.70217198 51.734375 344.3828125 C50.93 345.4140625 50.125625 346.4453125 49.296875 347.5078125 C48.636875 347.5078125 47.976875 347.5078125 47.296875 347.5078125 C47.02810547 348.10110352 46.75933594 348.69439453 46.48242188 349.30566406 C45.29396768 351.51321283 44.08945111 352.97324132 42.328125 354.7421875 C41.75707031 355.31582031 41.18601562 355.88945312 40.59765625 356.48046875 C40.00339844 357.06699219 39.40914063 357.65351563 38.796875 358.2578125 C38.20261719 358.85980469 37.60835938 359.46179688 36.99609375 360.08203125 C36.13951172 360.93474609 36.13951172 360.93474609 35.265625 361.8046875 C34.74419922 362.32385742 34.22277344 362.84302734 33.68554688 363.37792969 C32.296875 364.5078125 32.296875 364.5078125 30.296875 364.5078125 C30.296875 365.1678125 30.296875 365.8278125 30.296875 366.5078125 C29.636875 366.5078125 28.976875 366.5078125 28.296875 366.5078125 C28.296875 367.1678125 28.296875 367.8278125 28.296875 368.5078125 C-7.87559131 402.76092346 -63.02874196 425.47561791 -112.80859375 425.7109375 C-113.76848709 425.71663757 -114.72838043 425.72233765 -115.71736145 425.72821045 C-117.74702876 425.73761947 -119.77671106 425.74417804 -121.80639648 425.74804688 C-124.83671713 425.75764181 -127.86632566 425.78865819 -130.89648438 425.8203125 C-148.1411586 425.91491598 -164.92009371 424.18046564 -181.640625 419.8203125 C-182.62804687 419.56685059 -183.61546875 419.31338867 -184.6328125 419.05224609 C-201.09906504 414.68134753 -216.7466547 408.65022671 -231.703125 400.5078125 C-232.68804932 399.98018311 -232.68804932 399.98018311 -233.69287109 399.44189453 C-251.59931245 389.82058759 -267.47139297 378.52990715 -282.28955078 364.58056641 C-284.4840913 362.51877951 -286.64273069 360.55164548 -289.08203125 358.78125 C-289.88447266 358.15089844 -289.88447266 358.15089844 -290.703125 357.5078125 C-290.703125 356.8478125 -290.703125 356.1878125 -290.703125 355.5078125 C-291.363125 355.5078125 -292.023125 355.5078125 -292.703125 355.5078125 C-294.078125 354.1796875 -294.078125 354.1796875 -295.703125 352.2578125 C-296.32574219 351.52304687 -296.94835937 350.78828125 -297.58984375 350.03125 C-298.28722656 349.19851563 -298.98460937 348.36578125 -299.703125 347.5078125 C-300.47269531 346.61320312 -301.24226563 345.71859375 -302.03515625 344.796875 C-317.32340408 326.8361933 -329.21058645 307.09203706 -338.703125 285.5078125 C-339.48429687 283.78498047 -339.48429687 283.78498047 -340.28125 282.02734375 C-349.93026692 259.5552912 -356.24198344 233.01722132 -356.703125 208.5078125 C-356.72358887 207.52039063 -356.74405273 206.53296875 -356.76513672 205.515625 C-357.0293079 190.39018735 -356.79298037 175.50169548 -354.703125 160.5078125 C-354.61192383 159.81816406 -354.52072266 159.12851563 -354.42675781 158.41796875 C-348.56570437 115.5603008 -328.58524315 74.53065231 -299.703125 42.5078125 C-299.24164063 41.99138184 -298.78015625 41.47495117 -298.3046875 40.94287109 C-295.15056613 37.41953454 -291.94337947 33.95210099 -288.703125 30.5078125 C-287.97738281 29.72792969 -287.25164062 28.94804688 -286.50390625 28.14453125 C-280.14461398 21.5266356 -273.02085858 16.0099421 -265.703125 10.5078125 C-265.14496094 10.0835498 -264.58679688 9.65928711 -264.01171875 9.22216797 C-246.57867719 -3.96079697 -226.74560187 -15.40751991 -205.984375 -22.38671875 C-203.56191991 -23.2028554 -201.18897987 -24.06142954 -198.8046875 -24.9765625 C-188.02208692 -29.04510457 -176.76488074 -31.64120877 -165.453125 -33.7421875 C-164.59187012 -33.90517334 -163.73061523 -34.06815918 -162.84326172 -34.23608398 C-107.23148378 -44.08411207 -46.97194248 -30.96557991 0 0 Z M-131.703125 52.5078125 C-131.703125 53.1678125 -131.703125 53.8278125 -131.703125 54.5078125 C-132.363125 54.5078125 -133.023125 54.5078125 -133.703125 54.5078125 C-133.703125 55.1678125 -133.703125 55.8278125 -133.703125 56.5078125 C-134.363125 56.5078125 -135.023125 56.5078125 -135.703125 56.5078125 C-141.4348189 67.12322367 -147.79969788 79.02155623 -145.703125 91.5078125 C-143.47067788 98.13313943 -139.51159757 102.63549746 -133.703125 106.5078125 C-126.74436561 108.0250502 -119.98355103 108.13886861 -113.703125 104.5078125 C-108.92006085 100.60271041 -105.74008801 96.20350067 -104.7890625 90.04296875 C-104.39501015 78.4184243 -108.09005975 64.50507143 -115.703125 55.5078125 C-119.09888287 52.64028363 -120.9376635 51.57268212 -125.390625 51.1953125 C-128.70176371 51.3819548 -128.70176371 51.3819548 -131.703125 52.5078125 Z M-140.703125 119.5078125 C-142.70579025 123.47036421 -142.96020375 126.79210158 -142.96875 131.19921875 C-142.97132813 132.47345703 -142.97390625 133.74769531 -142.9765625 135.06054688 C-142.97237305 135.71885498 -142.96818359 136.37716309 -142.96386719 137.05541992 C-142.95313812 139.0678509 -142.96379624 141.07939303 -142.9765625 143.09179688 C-142.97398437 144.36474609 -142.97140625 145.63769531 -142.96875 146.94921875 C-142.96649414 148.11138916 -142.96423828 149.27355957 -142.96191406 150.47094727 C-142.71157522 153.40864993 -142.33192117 155.07932764 -140.703125 157.5078125 C-136.2544545 159.73214775 -130.15090613 158.69280851 -125.265625 158.6953125 C-124.01201172 158.70755859 -122.75839844 158.71980469 -121.46679688 158.73242188 C-120.26732422 158.73435547 -119.06785156 158.73628906 -117.83203125 158.73828125 C-116.72931885 158.74239014 -115.62660645 158.74649902 -114.49047852 158.75073242 C-111.49247049 158.71430687 -111.49247049 158.71430687 -108.703125 156.5078125 C-107.04706609 151.53963576 -107.51719151 146.36846069 -107.51782227 141.16601562 C-107.51564025 139.14691956 -107.49748377 137.12837414 -107.47851562 135.109375 C-107.47658203 133.830625 -107.47464844 132.551875 -107.47265625 131.234375 C-107.46854736 130.06471191 -107.46443848 128.89504883 -107.46020508 127.68994141 C-107.70375928 124.49950381 -108.23017833 122.33526531 -109.703125 119.5078125 C-114.76146592 115.88227237 -119.78860883 116.05411002 -125.765625 116.1328125 C-126.65056641 116.12121094 -127.53550781 116.10960937 -128.44726562 116.09765625 C-133.25828317 116.11931124 -136.94814869 116.15541649 -140.703125 119.5078125 Z M-239.703125 189.5078125 C-246.19735168 198.97128218 -247.0279319 207.4431073 -246.953125 218.6953125 C-246.96085937 219.87029297 -246.96859375 221.04527344 -246.9765625 222.25585938 C-246.97398437 223.38443359 -246.97140625 224.51300781 -246.96875 225.67578125 C-246.96649414 226.69953857 -246.96423828 227.7232959 -246.96191406 228.77807617 C-246.70213358 231.51827009 -246.1093201 233.16915784 -244.703125 235.5078125 C-244.043125 235.5078125 -243.383125 235.5078125 -242.703125 235.5078125 C-242.703125 236.1678125 -242.703125 236.8278125 -242.703125 237.5078125 C-242.043125 237.5078125 -241.383125 237.5078125 -240.703125 237.5078125 C-240.703125 238.1678125 -240.703125 238.8278125 -240.703125 239.5078125 C-230.56236665 244.01481621 -222.07703005 243.03494022 -211.703125 239.5078125 C-210.42405492 238.9858931 -209.15175205 238.44670851 -207.890625 237.8828125 C-198.5972815 233.87391923 -188.38183745 234.95151258 -179.12109375 238.49609375 C-177.40356121 239.20422186 -175.68611133 239.9125505 -173.96875 240.62109375 C-162.01929485 245.29786327 -149.29757428 242.0852884 -137.98046875 237.39453125 C-127.84746009 233.44908877 -117.22213181 235.56837941 -107.515625 239.5703125 C-96.13738123 244.25752165 -84.25219481 243.30594409 -72.703125 239.5078125 C-70.68842402 238.53777129 -68.68390453 237.54536368 -66.703125 236.5078125 C-55.94867652 233.87894732 -46.09779318 235.71879702 -36.2734375 240.36328125 C-29.22622967 243.50132364 -20.95567856 243.32348692 -13.59375 241.265625 C-9.54050891 239.64097878 -6.50222227 237.1439944 -4.55786133 233.1628418 C-3.09239425 228.61072682 -3.37548743 224.06442585 -3.390625 219.3203125 C-3.37451172 218.32966797 -3.35839844 217.33902344 -3.34179688 216.31835938 C-3.33338641 203.4923945 -7.5699966 192.99906358 -16.078125 183.3828125 C-19.83656253 179.82675237 -24.00604932 177.47382627 -28.578125 175.1328125 C-29.22571777 174.79878418 -29.87331055 174.46475586 -30.54052734 174.12060547 C-40.62746855 169.25614115 -50.98042564 169.2085658 -61.99658203 169.21728516 C-63.51887844 169.21128952 -65.04117182 169.20448162 -66.5634613 169.19692993 C-70.67333299 169.17936478 -74.78312123 169.17457849 -78.89302683 169.17329836 C-81.46917859 169.17187043 -84.04530957 169.16758869 -86.62145615 169.16230392 C-95.63306763 169.14383271 -104.64462021 169.13562937 -113.65625 169.13720703 C-122.01662039 169.13840658 -130.37673187 169.11733339 -138.73703682 169.0857197 C-145.94678288 169.05944195 -153.15644499 169.04884457 -160.36623847 169.05011785 C-164.65803077 169.05062426 -168.94959283 169.04512145 -173.24133682 169.02376175 C-177.28480369 169.00418504 -181.32782534 169.00438522 -185.37130928 169.01879501 C-186.84170634 169.02086063 -188.31213272 169.01631928 -189.78248024 169.0040741 C-209.70338753 168.84913283 -226.54720678 173.7312989 -239.703125 189.5078125 Z M-210.671875 250.265625 C-217.15261719 252.92139306 -223.58271246 253.72410966 -230.5390625 254.06640625 C-233.23670898 254.61664822 -234.00607152 255.36483968 -235.703125 257.5078125 C-236.33005784 260.81104779 -236.16662308 264.15169692 -236.140625 267.5078125 C-236.16060547 268.42304688 -236.18058594 269.33828125 -236.20117188 270.28125 C-236.20052734 271.16039062 -236.19988281 272.03953125 -236.19921875 272.9453125 C-236.20107178 273.74839844 -236.2029248 274.55148437 -236.20483398 275.37890625 C-235.86752849 277.59803997 -235.86752849 277.59803997 -234.20317078 279.11748028 C-230.61751648 281.11154405 -227.19698136 280.91839432 -223.20068359 280.8820343 C-221.90122079 280.88799591 -221.90122079 280.88799591 -220.57550621 280.89407796 C-217.66735895 280.90371642 -214.75969626 280.89187344 -211.8515625 280.88012695 C-209.76881732 280.8825544 -207.68607331 280.88627327 -205.60333252 280.89118958 C-199.9422623 280.90060855 -194.28136468 280.8911646 -188.62030792 280.87785745 C-182.70178699 280.8665562 -176.78327471 280.87064943 -170.86474609 280.87260437 C-160.92477594 280.87348777 -150.98487393 280.86239742 -141.04492188 280.84399414 C-129.54554418 280.82282585 -118.04626633 280.81931638 -106.54687309 280.8255561 C-95.4943904 280.83124676 -84.44194294 280.82560761 -73.38946533 280.81438255 C-68.68141021 280.80973262 -63.97337662 280.80886442 -59.26531982 280.8109684 C-53.72333424 280.81284922 -48.18145057 280.80476321 -42.63948822 280.788908 C-40.60289685 280.78465809 -38.56629515 280.78381933 -36.52970123 280.78659821 C-33.75487701 280.7898105 -30.98035913 280.78076217 -28.20556641 280.76850891 C-27.39506521 280.77228823 -26.58456402 280.77606756 -25.74950218 280.77996141 C-20.3830442 280.80392881 -20.3830442 280.80392881 -15.703125 278.5078125 C-13.39867568 271.59446455 -14.09042538 262.60369083 -15.703125 255.5078125 C-18.60871412 254.05501794 -21.48088906 254.00310978 -24.703125 253.6328125 C-32.26904552 252.69249215 -39.23130504 251.24372248 -46.078125 247.8203125 C-56.44478604 244.06686626 -65.01246477 247.40247304 -74.703125 251.5078125 C-87.46935607 256.3839737 -101.73520066 253.74684082 -113.8984375 248.57421875 C-122.04394785 245.12804129 -129.14904273 245.65699009 -137.328125 248.8828125 C-138.42640625 249.33785156 -139.5246875 249.79289062 -140.65625 250.26171875 C-153.86322482 255.66303281 -167.55266731 254.53380934 -180.703125 249.5078125 C-181.77433594 249.04568359 -181.77433594 249.04568359 -182.8671875 248.57421875 C-192.61919011 244.38045631 -201.17926041 246.265166 -210.671875 250.265625 Z M-235.703125 294.5078125 C-236.45804095 297.34437828 -236.45804095 297.34437828 -236.33203125 300.609375 C-236.33396484 301.82238281 -236.33589844 303.03539062 -236.33789062 304.28515625 C-236.31404297 305.55488281 -236.29019531 306.82460938 -236.265625 308.1328125 C-236.27658203 309.37933594 -236.28753906 310.62585938 -236.29882812 311.91015625 C-236.23244792 320.2917629 -235.36919925 327.06993314 -229.921875 333.6640625 C-229.07109375 334.32921875 -229.07109375 334.32921875 -228.203125 335.0078125 C-227.6359375 335.471875 -227.06875 335.9359375 -226.484375 336.4140625 C-222.32545711 338.96778401 -217.802685 338.65394144 -213.06280518 338.64825439 C-211.90233299 338.65271108 -211.90233299 338.65271108 -210.71841693 338.6572578 C-208.12379045 338.66593536 -205.52921016 338.66745225 -202.93457031 338.66894531 C-201.07506207 338.67357417 -199.21555477 338.67859892 -197.35604858 338.68399048 C-192.30219082 338.6971103 -187.24834635 338.70355867 -182.19447422 338.70800114 C-179.0364953 338.71093263 -175.87852 338.71503759 -172.72054291 338.71950531 C-162.83845323 338.73317935 -152.95637184 338.74284638 -143.07427335 338.7467072 C-131.669719 338.75118739 -120.26528454 338.7687339 -108.86076665 338.7977078 C-100.0436463 338.81933008 -91.22655967 338.82941178 -82.4094131 338.83074832 C-77.1442051 338.83179598 -71.87910982 338.83769563 -66.61392975 338.85556793 C-61.65958901 338.87205792 -56.7054456 338.87419956 -51.75108719 338.86542892 C-49.9354741 338.86465904 -48.11985037 338.86899484 -46.30426407 338.87888718 C-43.81973554 338.89162741 -41.33590372 338.88571887 -38.85137939 338.87530518 C-37.78150595 338.88738978 -37.78150595 338.88738978 -36.69001889 338.89971852 C-30.15240848 338.83592258 -24.85439931 337.28495215 -19.828125 333.1328125 C-13.79342427 325.67818219 -14.47727266 315.9645294 -14.390625 306.8203125 C-14.36162109 305.78841797 -14.33261719 304.75652344 -14.30273438 303.69335938 C-14.29435547 302.70013672 -14.28597656 301.70691406 -14.27734375 300.68359375 C-14.26276123 299.78552002 -14.24817871 298.88744629 -14.2331543 297.9621582 C-14.88528666 294.55650279 -15.92902254 293.59029902 -18.703125 291.5078125 C-21.6598972 291.11719935 -24.24297267 290.97154849 -27.19883728 291.00660706 C-28.06444025 291.00107266 -28.93004322 290.99553826 -29.82187659 290.98983616 C-32.72781426 290.97620257 -35.63289708 290.99121358 -38.53881836 291.00610352 C-40.61994289 291.0023213 -42.7010649 290.99682206 -44.78218079 290.98973083 C-50.43923065 290.97574546 -56.09597741 290.98696813 -61.75301051 291.00344205 C-67.66839647 291.01727269 -73.58376448 291.01083467 -79.49916077 291.00730896 C-89.4349558 291.00460506 -99.37063016 291.01809726 -109.30639648 291.04125977 C-120.79783422 291.06786326 -132.28907004 291.06961956 -143.78052801 291.0578714 C-154.82768079 291.04709595 -165.87476045 291.05327936 -176.92190742 291.06742668 C-181.62635588 291.07318922 -186.33075087 291.07310166 -191.03520012 291.06836128 C-196.5747726 291.06359264 -202.11412373 291.07368871 -207.6536541 291.09531593 C-209.68820957 291.10088575 -211.7227863 291.10134733 -213.75734329 291.09636307 C-216.53195176 291.09041777 -219.30588177 291.10290105 -222.08042908 291.12013245 C-222.88801743 291.1141224 -223.69560578 291.10811236 -224.52766651 291.10192019 C-229.06143511 291.15321558 -232.15290919 291.58182924 -235.703125 294.5078125 Z " fill="#030303" transform="translate(371.703125,53.4921875)"/>
<path d="M0 0 C0 3.62453269 -0.92469613 5.07920195 -3 8 C-3.99 8.33 -4.98 8.66 -6 9 C-6 9.66 -6 10.32 -6 11 C-6.66 11 -7.32 11 -8 11 C-7.67 11.99 -7.34 12.98 -7 14 C-7.99 14.99 -8.98 15.98 -10 17 C-10.99 16.01 -11.98 15.02 -13 14 C-11.02108364 11.85393535 -9.04187901 9.70813786 -7.0625 7.5625 C-6.49853516 6.95083984 -5.93457031 6.33917969 -5.35351562 5.70898438 C-4.81533203 5.12568359 -4.27714844 4.54238281 -3.72265625 3.94140625 C-3.22515869 3.40201416 -2.72766113 2.86262207 -2.21508789 2.30688477 C-1.48918929 1.52614632 -0.75381738 0.75381738 0 0 Z " fill="#473F40" transform="translate(84,83)"/>
<path d="M0 0 C0 0.66 0 1.32 0 2 C-0.66 2 -1.32 2 -2 2 C-2.12375 2.639375 -2.2475 3.27875 -2.375 3.9375 C-2.58125 4.618125 -2.7875 5.29875 -3 6 C-3.99 6.495 -3.99 6.495 -5 7 C-4.67 7.66 -4.34 8.32 -4 9 C-7.66291938 11.47785723 -10.6109185 12.48964169 -15 13 C-4.5 0 -4.5 0 0 0 Z " fill="#575055" transform="translate(100,70)"/>
<path d="M0 0 C0.33 0 0.66 0 1 0 C1.1098113 6.69848905 0.96073701 13.35786759 0 20 C-0.33 20.33 -0.66 20.66 -1 21 C-1.23363881 22.84891946 -1.41303635 24.70488031 -1.5625 26.5625 C-1.64628906 27.57441406 -1.73007812 28.58632812 -1.81640625 29.62890625 C-1.87699219 30.41136719 -1.93757813 31.19382813 -2 32 C-2.33 32 -2.66 32 -3 32 C-3.47908491 20.96330325 -2.05818089 10.80544969 0 0 Z " fill="#60595F" transform="translate(19,202)"/>
<path d="M0 0 C2.71652366 2.71652366 2.25785302 4.20087092 2.265625 7.99609375 C2.26820313 9.19427734 2.27078125 10.39246094 2.2734375 11.62695312 C2.26570313 12.88443359 2.25796875 14.14191406 2.25 15.4375 C2.25773437 16.69111328 2.26546875 17.94472656 2.2734375 19.23632812 C2.27085937 20.43580078 2.26828125 21.63527344 2.265625 22.87109375 C2.26224121 24.52516235 2.26224121 24.52516235 2.25878906 26.21264648 C2 29 2 29 0 32 C-0.66 31.67 -1.32 31.34 -2 31 C-1.67402832 30.30237549 -1.34805664 29.60475098 -1.01220703 28.88598633 C0.11613888 25.66886692 0.22882304 23.22553901 0.1953125 19.82421875 C0.18886719 18.66728516 0.18242187 17.51035156 0.17578125 16.31835938 C0.15064453 14.52108398 0.15064453 14.52108398 0.125 12.6875 C0.11146484 10.8612207 0.11146484 10.8612207 0.09765625 8.99804688 C0.07413037 5.99849726 0.04125653 2.99934956 0 0 Z " fill="#5F585E" transform="translate(367,258)"/>
<path d="M0 0 C0.66 0.33 1.32 0.66 2 1 C-3.87580032 6.20428028 -8.48263334 6.12741299 -16 6 C-16 5.67 -16 5.34 -16 5 C-15.18015625 4.80664062 -14.3603125 4.61328125 -13.515625 4.4140625 C-12.43796875 4.15367187 -11.3603125 3.89328125 -10.25 3.625 C-8.64898437 3.24214844 -8.64898437 3.24214844 -7.015625 2.8515625 C-4.05597899 2.12330461 -4.05597899 2.12330461 -1.734375 0.8359375 C-1.16203125 0.56007813 -0.5896875 0.28421875 0 0 Z " fill="#5C575B" transform="translate(303,290)"/>
<path d="M0 0 C3.39417765 3.12621626 5.6062718 5.56541027 7 10 C6.01 10 5.02 10 4 10 C3.67 8.68 3.34 7.36 3 6 C2.01 6.33 1.02 6.66 0 7 C0 4.69 0 2.38 0 0 Z " fill="#3B373A" transform="translate(432,111)"/>
<path d="M0 0 C0.66 0.99 1.32 1.98 2 3 C0.02 5.97 0.02 5.97 -2 9 C-3.32 8.34 -4.64 7.68 -6 7 C-4.02 4.69 -2.04 2.38 0 0 Z " fill="#373335" transform="translate(264,150)"/>
<path d="M0 0 C1.485 0.99 1.485 0.99 3 2 C3 2.66 3 3.32 3 4 C3.804375 4.28875 4.60875 4.5775 5.4375 4.875 C8 6 8 6 9 8 C8.05125 7.649375 7.1025 7.29875 6.125 6.9375 C3.12939828 5.64973223 3.12939828 5.64973223 1 7 C1 6.34 1 5.68 1 5 C0.34 4.67 -0.32 4.34 -1 4 C-0.34 4 0.32 4 1 4 C0.67 2.68 0.34 1.36 0 0 Z " fill="#424041" transform="translate(229,152)"/>
<path d="M0 0 C1.45169732 2.90339465 0.72348441 4.90874842 0 8 C-0.99 8.495 -0.99 8.495 -2 9 C-2.99 8.01 -3.98 7.02 -5 6 C-3.35 4.02 -1.7 2.04 0 0 Z " fill="#2B2828" transform="translate(76,91)"/>
<path d="M0 0 C3.42931954 3.7559214 4.56429083 8.23466745 6 13 C3.1251845 10.28623859 1.56683293 7.65594351 0 4 C0 2.68 0 1.36 0 0 Z " fill="#61595A" transform="translate(454,147)"/>
<path d="M0 0 C-3.60957611 3.2910841 -6.12637153 4.54663921 -11 5 C-7.8797251 0.39387991 -5.45124506 -0.14733095 0 0 Z " fill="#302D2D" transform="translate(96,78)"/>
<path d="M0 0 C0.85178626 2.38500154 1.09806909 3.6665651 0.375 6.125 C-1.41247034 8.56245955 -3.1632534 9.10418528 -6 10 C-5.38125 9.278125 -4.7625 8.55625 -4.125 7.8125 C-2.16333647 5.21618062 -1.04684 3.05328334 0 0 Z " fill="#544B54" transform="translate(355,379)"/>
<path d="M0 0 C0.66 0.33 1.32 0.66 2 1 C1.67 2.32 1.34 3.64 1 5 C-1.76264289 5.59732819 -4.16032769 6 -7 6 C-4.69 4.02 -2.38 2.04 0 0 Z " fill="#544A51" transform="translate(107,63)"/>
<path d="M0 0 C0.99 0 1.98 0 3 0 C2.34 2.64 1.68 5.28 1 8 C-0.42944945 5.64561267 -1.08661261 4.51967567 -0.625 1.75 C-0.41875 1.1725 -0.2125 0.595 0 0 Z " fill="#322F30" transform="translate(465,314)"/>
<path d="M0 0 C1 2 1 2 0.3125 4.5625 C-0.120625 5.366875 -0.55375 6.17125 -1 7 C-2.32 7.33 -3.64 7.66 -5 8 C-3.35 5.36 -1.7 2.72 0 0 Z " fill="#454041" transform="translate(57,115)"/>
<path d="M0 0 C-0.66 1.32 -1.32 2.64 -2 4 C-2 3.34 -2 2.68 -2 2 C-4.31 2.33 -6.62 2.66 -9 3 C-4.5 0 -4.5 0 0 0 Z " fill="#464343" transform="translate(169,31)"/>
</svg>
